<svg xmlns="http://www.w3.org/2000/svg" version="1.1" xmlns:xlink="http://www.w3.org/1999/xlink" xmlns:svgjs="http://svgjs.com/svgjs" width="50" height="50"><svg width="50" height="50" viewBox="0 0 50 50" fill="none" xmlns="http://www.w3.org/2000/svg">
<path d="M47.1834 0H2.81369C1.29863 0 0 1.23119 0 2.66758V47.3324C0 48.8372 1.29863 50 2.81369 50H47.1834C48.7706 50 49.9971 48.7688 49.9971 47.3324V2.66758C50.0693 1.23119 48.7706 0 47.1834 0ZM47.1834 2.66758V47.3324H2.81369V2.66758H47.1834Z" fill="black"></path>
<path d="M11.3991 22.2298C14.5468 22.2298 17.0986 19.8106 17.0986 16.8263C17.0986 13.842 14.5468 11.4227 11.3991 11.4227C8.2513 11.4227 5.69953 13.842 5.69953 16.8263C5.69953 19.8106 8.2513 22.2298 11.3991 22.2298Z" fill="#CC3533"></path>
<path d="M38.6702 22.2298C41.818 22.2298 44.3697 19.8106 44.3697 16.8263C44.3697 13.842 41.818 11.4227 38.6702 11.4227C35.5225 11.4227 32.9707 13.842 32.9707 16.8263C32.9707 19.8106 35.5225 22.2298 38.6702 22.2298Z" fill="#CC3533"></path>
<path d="M9.23468 31.7373V24.9658C9.23468 23.803 10.1726 22.8454 11.3991 22.8454C12.6255 22.8454 13.5634 23.803 13.5634 24.9658V30.0958L17.2429 31.8057L21.0666 33.6525V40.3557C21.0666 41.5185 20.1287 42.4761 18.9022 42.4761C17.6758 42.4761 16.7379 41.5185 16.7379 40.3557V35.4993L9.23468 31.7373Z" fill="black"></path>
<path d="M40.7625 31.7373V24.9658C40.7625 23.803 39.8246 22.8454 38.5981 22.8454C37.3716 22.8454 36.4337 23.803 36.4337 24.9658V30.0958L29.0027 33.6525V40.3557C29.0027 41.5185 29.9406 42.4761 31.167 42.4761C32.3935 42.4761 33.3314 41.5185 33.3314 40.3557V35.4993L40.7625 31.7373Z" fill="black"></path>
<path d="M24.9625 19.015C23.6639 19.015 22.6538 20.041 22.6538 21.2038V36.7305C22.6538 37.9617 23.736 38.9193 24.9625 38.9193C26.2611 38.9193 27.2712 37.8933 27.2712 36.7305V21.2038C27.3433 19.9726 26.2611 19.015 24.9625 19.015Z" fill="black"></path>
<path d="M25.0346 18.3995C28.1824 18.3995 30.7342 15.9802 30.7342 12.9959C30.7342 10.0116 28.1824 7.59234 25.0346 7.59234C21.8869 7.59234 19.3351 10.0116 19.3351 12.9959C19.3351 15.9802 21.8869 18.3995 25.0346 18.3995Z" fill="#CC3533"></path>
</svg><style>@media (prefers-color-scheme: light) { :root { filter: none; } }
</style></svg>