<svg width="50" height="51" viewBox="0 0 50 51" fill="none" xmlns="http://www.w3.org/2000/svg">
<path d="M39.5833 6.44952H10.4167C8.11548 6.44952 6.25 8.315 6.25 10.6162V39.7829C6.25 42.084 8.11548 43.9495 10.4167 43.9495H39.5833C41.8845 43.9495 43.75 42.084 43.75 39.7829V10.6162C43.75 8.315 41.8845 6.44952 39.5833 6.44952Z" stroke="currentColor" stroke-width="2" stroke-linecap="round" stroke-linejoin="round"/>
<path d="M17.7083 21.0328C19.4342 21.0328 20.8333 19.6337 20.8333 17.9078C20.8333 16.1819 19.4342 14.7828 17.7083 14.7828C15.9824 14.7828 14.5833 16.1819 14.5833 17.9078C14.5833 19.6337 15.9824 21.0328 17.7083 21.0328Z" stroke="currentColor" stroke-width="2" stroke-linecap="round" stroke-linejoin="round"/>
<path d="M42.5 30.4078L33.3333 21.0328L8.33334 41.8662" stroke="currentColor" stroke-width="2" stroke-linecap="round" stroke-linejoin="round"/>
</svg>
