<svg width="50" height="51" viewBox="0 0 50 51" fill="none" xmlns="http://www.w3.org/2000/svg">
<path d="M45.8333 35.2808V41.5308C45.8357 42.111 45.7168 42.6853 45.4844 43.2169C45.252 43.7486 44.911 44.2258 44.4835 44.618C44.0559 45.0103 43.5512 45.3089 43.0016 45.4948C42.4519 45.6807 41.8695 45.7497 41.2917 45.6975C34.8809 45.0009 28.7229 42.8103 23.3125 39.3016C18.2788 36.103 14.0111 31.8353 10.8125 26.8016C7.29162 21.3666 5.10051 15.1787 4.41667 8.73913C4.36461 8.16302 4.43307 7.58239 4.61771 7.03419C4.80235 6.48599 5.09911 5.98224 5.4891 5.55501C5.87909 5.12779 6.35376 4.78645 6.8829 4.55272C7.41204 4.319 7.98404 4.19801 8.5625 4.19747H14.8125C15.8236 4.18752 16.8037 4.54555 17.5703 5.20483C18.3369 5.86411 18.8377 6.77965 18.9792 7.7808C19.243 9.78094 19.7322 11.7448 20.4375 13.635C20.7178 14.3806 20.7785 15.191 20.6123 15.9701C20.4461 16.7492 20.0601 17.4644 19.5 18.0308L16.8542 20.6766C19.8199 25.8924 24.1384 30.2109 29.3542 33.1766L32 30.5308C32.5664 29.9707 33.2816 29.5847 34.0607 29.4185C34.8398 29.2523 35.6502 29.313 36.3958 29.5933C38.286 30.2986 40.2499 30.7878 42.25 31.0516C43.262 31.1944 44.1863 31.7041 44.8469 32.4839C45.5076 33.2637 45.8587 34.2591 45.8333 35.2808Z" stroke="currentColor" stroke-width="2" stroke-linecap="round" stroke-linejoin="round"/>
</svg>
